<svg width="23" height="25" viewBox="0 0 23 25" fill="none" xmlns="http://www.w3.org/2000/svg">
<path d="M6.18805 16.5962C6.37092 16.5962 6.55201 16.5602 6.72097 16.4902C6.88993 16.4202 7.04345 16.3177 7.17276 16.1884C7.30207 16.059 7.40465 15.9055 7.47464 15.7366C7.54462 15.5676 7.58064 15.3865 7.58064 15.2036C7.58064 15.0208 7.54462 14.8397 7.47464 14.6707C7.40465 14.5018 7.30207 14.3482 7.17276 14.2189C7.04345 14.0896 6.88993 13.987 6.72097 13.9171C6.55201 13.8471 6.37092 13.811 6.18805 13.811C5.81871 13.811 5.4645 13.9578 5.20333 14.2189C4.94217 14.4801 4.79545 14.8343 4.79545 15.2036C4.79545 15.573 4.94217 15.9272 5.20333 16.1884C5.4645 16.4495 5.81871 16.5962 6.18805 16.5962ZM17.8029 15.2018C17.8032 15.5711 17.6567 15.9254 17.3957 16.1868C17.1347 16.4481 16.7806 16.5951 16.4113 16.5953C16.0419 16.5956 15.6876 16.4491 15.4263 16.1881C15.1649 15.9271 15.018 15.573 15.0177 15.2036C15.0177 14.8343 15.1644 14.4801 15.4256 14.2189C15.6868 13.9578 16.041 13.811 16.4103 13.811C16.7797 13.811 17.1339 13.9578 17.395 14.2189C17.6562 14.4801 17.8029 14.8343 17.8029 15.2036V15.2018ZM8.51028 0.329468C8.26372 0.329468 8.02727 0.427411 7.85293 0.601752C7.67859 0.776092 7.58064 1.01255 7.58064 1.2591V2.18874H6.31448C5.41055 2.18854 4.5375 2.51759 3.85859 3.11438C3.17967 3.71117 2.74138 4.53482 2.62568 5.43131L2.32448 7.76655H1.07319C0.826636 7.76655 0.590179 7.8645 0.415839 8.03884C0.241498 8.21318 0.143555 8.44964 0.143555 8.69619C0.143555 8.94275 0.241498 9.1792 0.415839 9.35354C0.590179 9.52788 0.826636 9.62583 1.07319 9.62583H2.08463L2.06604 9.76341C1.50694 9.94615 1.01994 10.301 0.674646 10.7772C0.329357 11.2534 0.143468 11.8265 0.143555 12.4147V17.9925C0.143555 18.7322 0.437385 19.4416 0.960407 19.9646C1.48343 20.4876 2.1928 20.7815 2.93246 20.7815V23.1055C2.93246 23.4754 3.07938 23.8301 3.34089 24.0916C3.6024 24.3531 3.95708 24.5 4.32692 24.5C4.69675 24.5 5.05143 24.3531 5.31294 24.0916C5.57445 23.8301 5.72137 23.4754 5.72137 23.1055V20.7815H16.8714V23.1055C16.8714 23.4754 17.0183 23.8301 17.2798 24.0916C17.5414 24.3531 17.896 24.5 18.2659 24.5C18.6357 24.5 18.9904 24.3531 19.2519 24.0916C19.5134 23.8301 19.6603 23.4754 19.6603 23.1055V20.7815H19.6659C20.4056 20.7815 21.1149 20.4876 21.638 19.9646C22.161 19.4416 22.4548 18.7322 22.4548 17.9925V12.4147C22.4549 11.8245 22.2678 11.2495 21.9203 10.7724C21.5728 10.2953 21.083 9.9407 20.5212 9.75969L20.5044 9.62583H21.5252C21.7717 9.62583 22.0082 9.52788 22.1825 9.35354C22.3569 9.1792 22.4548 8.94275 22.4548 8.69619C22.4548 8.44964 22.3569 8.21318 22.1825 8.03884C22.0082 7.8645 21.7717 7.76655 21.5252 7.76655H20.2665L19.969 5.43689C19.8546 4.5397 19.4171 3.71497 18.7384 3.11709C18.0598 2.51921 17.1865 2.18916 16.282 2.18874H15.0177V1.2591C15.0177 1.01255 14.9198 0.776092 14.7454 0.601752C14.5711 0.427411 14.3346 0.329468 14.0881 0.329468H8.51028ZM3.95878 9.62583L4.47008 5.6693C4.52793 5.22105 4.74708 4.80923 5.08653 4.51083C5.42599 4.21244 5.86251 4.04791 6.31448 4.04801H16.2802C16.7324 4.04797 17.1692 4.21276 17.5087 4.51153C17.8482 4.8103 18.0671 5.22257 18.1246 5.67116L18.6303 9.62583H3.95878ZM20.5955 17.9925C20.5955 18.2391 20.4976 18.4756 20.3233 18.6499C20.1489 18.8242 19.9125 18.9222 19.6659 18.9222H2.93246C2.68591 18.9222 2.44945 18.8242 2.27511 18.6499C2.10077 18.4756 2.00283 18.2391 2.00283 17.9925V12.4147C2.00283 12.1682 2.10077 11.9317 2.27511 11.7574C2.44945 11.583 2.68591 11.4851 2.93246 11.4851H19.6659C19.9125 11.4851 20.1489 11.583 20.3233 11.7574C20.4976 11.9317 20.5955 12.1682 20.5955 12.4147V17.9925Z" fill="#5A82B9"/>
</svg>
