<svg width="101" height="48" viewBox="0 0 101 48" fill="none" xmlns="http://www.w3.org/2000/svg">
    <g clip-path="url(#clip0_36_224)">
        <path
            d="M3.13666 40.4145H4.71753L4.73949 39.7326C4.75203 39.3337 4.75831 38.9756 4.75831 38.6409C4.75831 32.7038 9.60129 27.8757 15.5531 27.8757C21.5049 27.8757 26.3478 32.7054 26.3478 38.6409C26.3478 38.9709 26.3541 39.3275 26.3667 39.731L26.387 40.4129H69.3465L69.3669 39.731C69.3811 39.2915 69.3873 38.9005 69.3873 38.5361C69.3873 32.7461 74.4969 27.6661 80.3232 27.6661C86.1496 27.6661 91.2592 32.7461 91.2592 38.5361C91.2592 38.8989 91.2654 39.2774 91.278 39.7294L91.2984 40.4129H95.823C97.5089 40.4129 99.1431 38.9271 98.8812 37.3631C98.6193 35.799 96.0567 23.2133 96.0567 23.2133C95.6912 21.6712 94.6859 20.5904 93.0753 20.2385L73.4603 16.2174C72.2229 15.2946 62.3267 7.92338 61.4783 7.23207C60.7192 6.61428 58.0405 4.59825 55.4904 4.59825H27.2873C26.6615 4.59825 26.0514 4.61702 25.4555 4.65612L22.714 0.328458C22.5054 1.20295e-05 22.0695 -0.0985217 21.7401 0.109494C21.4108 0.31751 21.312 0.752309 21.5205 1.08075L23.8793 4.8047C12.9214 6.1529 7.32722 13.9527 3.63696 20.8297C0.0784302 27.4628 0.0784302 32.4974 0.0784302 37.3646C0.0784302 38.9897 1.50717 40.4145 3.13666 40.4145ZM4.8822 21.4913C4.91043 21.4381 4.93866 21.385 4.96846 21.3333H8.37172C8.43602 21.4413 8.46896 21.6102 8.46896 21.8542C8.46896 22.3719 8.46896 23.95 5.10961 24.3816C4.7238 24.4317 4.44935 24.7836 4.49953 25.1699C4.54501 25.5249 4.84927 25.7846 5.199 25.7846C5.2288 25.7846 5.26017 25.783 5.28997 25.7783C9.28292 25.2653 9.88045 23.1007 9.88045 21.8557C9.88045 21.6665 9.86633 21.4944 9.83967 21.3349H17.6436C18.0342 21.3349 18.3494 21.0205 18.3494 20.6311C18.3494 20.2417 18.0342 19.9273 17.6436 19.9273H5.75262C9.65461 13.1378 15.6927 6.00744 27.2888 6.00744H34.8121C34.5784 9.04635 33.3473 25.0886 33.25 26.7152C33.0759 29.6039 33.6045 31.6559 34.8638 32.9916C36.1044 34.3054 38.0632 34.9435 40.8548 34.9435H55.9107C56.3012 34.9435 56.6165 34.6291 56.6165 34.2397C56.6165 33.8503 56.3012 33.5359 55.9107 33.5359H40.8548C38.4741 33.5359 36.8509 33.0417 35.8911 32.0266C34.9125 30.9897 34.5094 29.2802 34.6584 26.7996C34.7556 25.1871 36.0228 8.67724 36.2283 6.00744H55.4936C57.6312 6.00744 60.1123 7.93745 60.589 8.32533C61.5143 9.07763 72.2872 17.1011 72.7451 17.442L72.8706 17.5359L90.188 21.0862C90.1833 21.2207 90.1786 21.3568 90.1786 21.4913C90.1786 24.66 91.3925 27.394 93.1992 28.2948C93.3011 28.3449 93.4078 28.3699 93.5144 28.3699C93.7732 28.3699 94.0225 28.2276 94.1464 27.9805C94.3205 27.6332 94.1794 27.2094 93.8312 27.0358C92.7177 26.4806 91.5901 24.3973 91.5901 21.4897C91.5901 21.4506 91.5916 21.4115 91.5932 21.3724L93.0016 21.6462C93.9034 21.8417 94.4648 22.4031 94.6483 23.2884L96.6887 33.5328H94.3346C93.9441 33.5328 93.6289 33.8471 93.6289 34.2366C93.6289 34.626 93.9441 34.9404 94.3346 34.9404H96.844C96.8863 34.9404 96.9286 34.9357 96.9678 34.9279C96.9678 34.9279 97.4085 36.7093 97.4697 37.4287C97.5293 38.1466 96.7106 39.0069 95.8245 39.0069H92.6753C92.6722 38.8442 92.6722 38.6894 92.6722 38.5376C92.6722 35.3095 91.3156 32.2237 88.8518 29.8479C86.4867 27.5676 83.3799 26.26 80.3232 26.26C77.2666 26.26 74.1597 27.5676 71.7947 29.8479C69.3309 32.2237 67.9743 35.3095 67.9743 38.5376C67.9743 38.6878 67.9743 38.8442 67.9711 39.0069H27.7625C27.7609 38.8802 27.7593 38.7597 27.7593 38.6424C27.7593 31.9296 22.2827 26.4696 15.5531 26.4696C8.8234 26.4696 3.34525 31.9296 3.34525 38.6424C3.34525 38.7613 3.34525 38.8817 3.34211 39.0069H3.13509C2.20821 39.0069 1.48835 38.1247 1.48835 37.3646C1.48835 36.5513 1.48835 35.7474 1.50404 34.9404H2.27251C2.66303 34.9404 2.97826 34.626 2.97826 34.2366C2.97826 33.8471 2.66303 33.5328 2.27251 33.5328H1.54952C1.72046 29.912 2.37602 26.1615 4.88064 21.4913H4.8822Z"
            fill="#fff" />
        <path
            d="M68.175 28.8579C68.1264 29.2442 68.4008 29.5945 68.7882 29.643C68.818 29.6462 68.8478 29.6493 68.876 29.6493C69.2273 29.6493 69.53 29.3881 69.5755 29.0331C70.1087 24.7773 68.6784 19.2031 68.6173 18.9685C68.52 18.5916 68.1342 18.3664 67.7563 18.4634C67.3783 18.5603 67.1524 18.9451 67.2497 19.322C67.2638 19.3768 68.6737 24.8681 68.1734 28.8595L68.175 28.8579Z"
            fill="#fff" />
        <path
            d="M64.5365 14.8426C64.5365 13.2442 61.3496 10.8059 59.4488 9.49367L59.2716 9.37011C57.9464 8.45203 56.9003 7.72632 54.082 7.72632H40.6211C38.9446 7.72632 37.5786 9.0792 37.5629 10.748L37.2508 14.7895V14.8442C37.2492 16.5255 38.6199 17.8941 40.3075 17.8941H61.7935C63.3838 17.8941 64.538 16.6116 64.538 14.8442L64.5365 14.8426ZM38.6591 14.8677L38.9712 10.8309V10.7762C38.9728 9.8706 39.7115 9.13394 40.6196 9.13394H54.0805C56.4565 9.13394 57.2563 9.68761 58.4655 10.5259L58.6459 10.651C61.4124 12.5607 63.125 14.314 63.125 14.8426C63.125 15.5996 62.7753 16.4849 61.7919 16.4849H40.3059C39.4057 16.4849 38.6733 15.7623 38.6591 14.8677Z"
            fill="#fff" />
        <path
            d="M15.448 34.002C12.854 34.002 10.743 36.1071 10.743 38.694C10.743 41.2809 12.854 43.3861 15.448 43.3861C18.042 43.3861 20.1529 41.2809 20.1529 38.694C20.1529 36.1071 18.042 34.002 15.448 34.002ZM15.448 41.9785C13.6319 41.9785 12.1545 40.5052 12.1545 38.694C12.1545 36.8829 13.6319 35.4096 15.448 35.4096C17.2641 35.4096 18.7415 36.8829 18.7415 38.694C18.7415 40.5052 17.2641 41.9785 15.448 41.9785Z"
            fill="#fff" />
        <path
            d="M80.2197 34.002C77.6257 34.002 75.5147 36.1071 75.5147 38.694C75.5147 41.2809 77.6257 43.3861 80.2197 43.3861C82.8137 43.3861 84.9247 41.2809 84.9247 38.694C84.9247 36.1071 82.8137 34.002 80.2197 34.002ZM80.2197 41.9785C78.4036 41.9785 76.9262 40.5052 76.9262 38.694C76.9262 36.8829 78.4036 35.4096 80.2197 35.4096C82.0358 35.4096 83.5132 36.8829 83.5132 38.694C83.5132 40.5052 82.0358 41.9785 80.2197 41.9785Z"
            fill="#fff" />
        <path
            d="M45.5598 19.9257H37.875C37.4845 19.9257 37.1693 20.2401 37.1693 20.6295C37.1693 21.019 37.4845 21.3333 37.875 21.3333H45.5598C45.9503 21.3333 46.2655 21.019 46.2655 20.6295C46.2655 20.2401 45.9503 19.9257 45.5598 19.9257Z"
            fill="#fff" />
        <path
            d="M32.1444 15.1882C32.3451 14.0058 32.8078 9.69695 32.9317 8.41914C32.9505 8.22207 32.8862 8.025 32.7513 7.87798C32.618 7.73096 32.4282 7.64807 32.229 7.64807C19.9365 7.64807 13.7072 11.4846 12.1075 14.7707C11.7091 15.5886 11.6746 16.269 12.004 16.7929C12.3317 17.3153 12.9638 17.5812 13.8797 17.5812H29.0532C30.9367 17.5812 31.8605 16.8664 32.1444 15.1898V15.1882ZM13.2006 16.0453C13.2006 16.0453 13.1394 15.8717 13.3762 15.3838C14.496 13.0831 19.5586 9.22305 31.4465 9.06039C31.2677 10.7871 30.9164 13.9808 30.7517 14.9536C30.6121 15.7826 30.3988 16.172 29.0516 16.172H13.8781C13.3292 16.172 13.2006 16.0453 13.199 16.0453H13.2006Z"
            fill="#fff" />
        <path
            d="M28.1514 45.8886H21.359C23.4449 44.1806 24.7795 41.589 24.7795 38.694C24.7795 33.5625 20.5937 29.3881 15.448 29.3881C10.3023 29.3881 6.11646 33.5625 6.11646 38.694C6.11646 41.589 7.44953 44.1806 9.53697 45.8886H0.705745C0.315233 45.8886 0 46.2029 0 46.5924C0 46.9818 0.315233 47.2962 0.705745 47.2962H11.8408C11.855 47.2962 11.8675 47.293 11.8816 47.2915C12.981 47.7466 14.1855 48 15.448 48C16.7105 48 17.915 47.7466 19.0143 47.2915C19.0285 47.2915 19.041 47.2962 19.0551 47.2962H28.1514C28.5419 47.2962 28.8571 46.9818 28.8571 46.5924C28.8571 46.2029 28.5419 45.8886 28.1514 45.8886ZM7.52795 38.694C7.52795 34.3382 11.0802 30.7957 15.448 30.7957C19.8158 30.7957 23.368 34.3382 23.368 38.694C23.368 43.0498 19.8158 46.5924 15.448 46.5924C11.0802 46.5924 7.52795 43.0498 7.52795 38.694Z"
            fill="#fff" />
        <path
            d="M100.294 45.8886H86.1307C88.2166 44.1806 89.5512 41.589 89.5512 38.694C89.5512 33.5625 85.3654 29.3881 80.2197 29.3881C75.074 29.3881 70.8882 33.5625 70.8882 38.694C70.8882 41.589 72.2213 44.1806 74.3087 45.8886H67.5163C67.1258 45.8886 66.8105 46.2029 66.8105 46.5924C66.8105 46.9818 67.1258 47.2962 67.5163 47.2962H76.6126C76.6267 47.2962 76.6392 47.293 76.6533 47.2915C77.7527 47.7466 78.9572 48 80.2197 48C81.4822 48 82.6867 47.7466 83.7861 47.2915C83.8002 47.2915 83.8127 47.2962 83.8269 47.2962H100.294C100.685 47.2962 101 46.9818 101 46.5924C101 46.2029 100.685 45.8886 100.294 45.8886ZM72.2997 38.694C72.2997 34.3382 75.8519 30.7957 80.2197 30.7957C84.5875 30.7957 88.1397 34.3382 88.1397 38.694C88.1397 43.0498 84.5875 46.5924 80.2197 46.5924C75.8519 46.5924 72.2997 43.0498 72.2997 38.694Z"
            fill="#fff" />
        <path
            d="M16.4517 38.6831L17.1716 37.9652C17.4476 37.69 17.4476 37.2442 17.1716 36.9705C16.8955 36.6952 16.4486 36.6952 16.1741 36.9705L15.4543 37.6884L14.7156 36.9502C14.4396 36.6749 13.9926 36.6749 13.7181 36.9502C13.4421 37.2254 13.4421 37.6712 13.7181 37.9449L14.4584 38.6831L13.7369 39.4026C13.4609 39.6778 13.4609 40.1236 13.7369 40.3973C13.875 40.5349 14.0553 40.6037 14.2357 40.6037C14.416 40.6037 14.5964 40.5349 14.7344 40.3973L15.4558 39.6778L16.1898 40.4114C16.3278 40.549 16.5082 40.6178 16.6885 40.6178C16.8689 40.6178 17.0492 40.549 17.1873 40.4114C17.4633 40.1361 17.4633 39.6903 17.1873 39.4166L16.4533 38.6831H16.4517Z"
            fill="#fff" />
        <path
            d="M81.2234 38.6831L81.9433 37.9652C82.2193 37.69 82.2193 37.2442 81.9433 36.9705C81.6673 36.6952 81.2203 36.6952 80.9458 36.9705L80.226 37.6884L79.4873 36.9502C79.2113 36.6749 78.7659 36.6749 78.4899 36.9502C78.2138 37.2254 78.2138 37.6712 78.4899 37.9449L79.2301 38.6831L78.5087 39.4026C78.2326 39.6778 78.2326 40.1236 78.5087 40.3973C78.6467 40.5349 78.827 40.6037 79.0074 40.6037C79.1878 40.6037 79.3681 40.5349 79.5061 40.3973L80.2276 39.6778L80.9615 40.4114C81.0995 40.549 81.2799 40.6178 81.4603 40.6178C81.6406 40.6178 81.821 40.549 81.959 40.4114C82.235 40.1361 82.235 39.6903 81.959 39.4166L81.225 38.6831H81.2234Z"
            fill="#fff" />
    </g>
    <defs>
        <clipPath id="clip0_36_224">
            <rect width="101" height="48" fill="white" />
        </clipPath>
    </defs>
</svg>