<svg width="24" height="24" viewBox="0 0 24 24" fill="none" xmlns="http://www.w3.org/2000/svg">
<path d="M12.653 0.306801C12.9973 0.105876 13.3888 0 13.7875 0C14.1862 0 14.5777 0.105876 14.922 0.306801L14.929 0.310801L21.886 4.5868C22.2287 4.78755 22.5129 5.07442 22.7104 5.41895C22.9079 5.76347 23.0119 6.15367 23.012 6.5508V14.0668C23.012 14.8768 22.58 15.6268 21.879 16.0348L21.877 16.0358L9.913 23.0728L9.909 23.0758C9.203 23.4858 8.331 23.4858 7.625 23.0758L7.599 23.0608L1.096 18.5588C0.761376 18.3568 0.484627 18.0718 0.292598 17.7314C0.10057 17.3909 -0.000221806 17.0067 3.66505e-07 16.6158V9.0628C3.66505e-07 8.6708 0.1 8.2928 0.284 7.9628L0.287 7.9568L0.301 7.9308C0.498 7.5888 0.781 7.3038 1.121 7.1038H1.123L12.653 0.306801ZM13.41 1.6018H13.409L2.149 8.2408L8.397 12.4878C8.51363 12.5512 8.64458 12.5836 8.77731 12.5818C8.91003 12.5801 9.04009 12.5442 9.155 12.4778L20.789 5.6738L14.16 1.5998C14.0457 1.53443 13.9163 1.50029 13.7846 1.50082C13.6529 1.50135 13.5238 1.53652 13.41 1.6028V1.6018ZM8.018 13.9548C7.88161 13.9073 7.75002 13.8471 7.625 13.7748L7.602 13.7608L1.5 9.6138V16.6168C1.5 16.8918 1.645 17.1448 1.879 17.2808L1.904 17.2948L8.018 21.5268V13.9548ZM17.501 9.3338L14.251 11.2338V18.7818L17.501 16.8698V9.3338ZM9.911 13.7718L9.909 13.7738C9.78459 13.8459 9.65368 13.9062 9.518 13.9538V21.5658L12.751 19.6638V12.1118L9.911 13.7718ZM19.001 8.4558V15.9878L21.125 14.7378C21.2426 14.6697 21.3403 14.5718 21.4082 14.454C21.4761 14.3363 21.5119 14.2027 21.512 14.0668V6.9878L19.001 8.4558Z" fill="#5A82B9"/>
</svg>
