<svg width="19" height="22" viewBox="0 0 19 22" fill="none" xmlns="http://www.w3.org/2000/svg">
<path id="Vector" d="M12.998 0.993164H6.03149C5.0736 0.993164 4.28988 1.77689 4.28988 2.73478V16.6677C4.28988 17.6256 5.0736 18.4093 6.03149 18.4093H16.4812C17.4391 18.4093 18.2228 17.6256 18.2228 16.6677V6.21802L12.998 0.993164ZM16.4812 16.6677H6.03149V2.73478H12.1272V7.08883H16.4812V16.6677ZM2.54826 4.4764V20.151H16.4812V21.8926H2.54826C1.59037 21.8926 0.806641 21.1088 0.806641 20.151V4.4764H2.54826ZM7.77311 9.70125V11.4429H14.7396V9.70125H7.77311ZM7.77311 13.1845V14.9261H12.1272V13.1845H7.77311Z" fill="#023E8A"/>
</svg>
