<svg width="17" height="17" viewBox="0 0 17 17" fill="none" xmlns="http://www.w3.org/2000/svg">
<path id="Vector" d="M8.38055 15.3688C4.82814 15.3688 1.93627 12.4769 1.93627 8.9245C1.93627 5.37209 4.82814 2.48021 8.38055 2.48021C11.933 2.48021 14.8248 5.37209 14.8248 8.9245C14.8248 12.4769 11.933 15.3688 8.38055 15.3688ZM8.38055 0.869141C7.32271 0.869141 6.27522 1.0775 5.2979 1.48232C4.32058 1.88714 3.43256 2.48049 2.68456 3.2285C1.17388 4.73917 0.325195 6.78809 0.325195 8.9245C0.325195 11.0609 1.17388 13.1098 2.68456 14.6205C3.43256 15.3685 4.32058 15.9619 5.2979 16.3667C6.27522 16.7715 7.32271 16.9799 8.38055 16.9799C10.517 16.9799 12.5659 16.1312 14.0766 14.6205C15.5872 13.1098 16.4359 11.0609 16.4359 8.9245C16.4359 7.86665 16.2276 6.81917 15.8227 5.84185C15.4179 4.86453 14.8246 3.97651 14.0766 3.2285C13.3285 2.48049 12.4405 1.88714 11.4632 1.48232C10.4859 1.0775 9.4384 0.869141 8.38055 0.869141ZM4.35287 9.73004H12.4082V8.11896H4.35287" fill="#FF3030"/>
</svg>
